<mxfile host="app.diagrams.net" modified="2023-09-25T11:32:42.748Z" agent="Mozilla/5.0 (Windows NT 10.0; Win64; x64) AppleWebKit/537.36 (KHTML, like Gecko) Chrome/116.0.0.0 Safari/537.36" etag="tP5MaNabrhl9z68GYqkg" version="21.8.2" type="github">
  <diagram name="第 1 页" id="4L33rzaFTpiXx3A1ZCAa">
    <mxGraphModel dx="1434" dy="796" grid="1" gridSize="10" guides="1" tooltips="1" connect="1" arrows="1" fold="1" page="1" pageScale="1" pageWidth="827" pageHeight="1169" math="0" shadow="0">
      <root>
        <mxCell id="0" />
        <mxCell id="1" parent="0" />
        <mxCell id="ZIUkU6c_xDonBehO3kMC-3" value="" style="edgeStyle=orthogonalEdgeStyle;rounded=0;orthogonalLoop=1;jettySize=auto;html=1;entryX=0;entryY=0.5;entryDx=0;entryDy=0;fillColor=#dae8fc;strokeColor=#6c8ebf;" edge="1" parent="1" source="ZIUkU6c_xDonBehO3kMC-1" target="ZIUkU6c_xDonBehO3kMC-2">
          <mxGeometry relative="1" as="geometry" />
        </mxCell>
        <mxCell id="ZIUkU6c_xDonBehO3kMC-5" value="" style="edgeStyle=orthogonalEdgeStyle;rounded=0;orthogonalLoop=1;jettySize=auto;html=1;entryX=0;entryY=0.5;entryDx=0;entryDy=0;fillColor=#dae8fc;strokeColor=#6c8ebf;" edge="1" parent="1" source="ZIUkU6c_xDonBehO3kMC-1" target="ZIUkU6c_xDonBehO3kMC-4">
          <mxGeometry relative="1" as="geometry" />
        </mxCell>
        <mxCell id="ZIUkU6c_xDonBehO3kMC-1" value="nmap 端口扫描" style="rounded=1;whiteSpace=wrap;html=1;fillColor=#dae8fc;strokeColor=#6c8ebf;" vertex="1" parent="1">
          <mxGeometry x="40" y="360" width="120" height="60" as="geometry" />
        </mxCell>
        <mxCell id="ZIUkU6c_xDonBehO3kMC-2" value="22" style="whiteSpace=wrap;html=1;rounded=1;fillColor=#dae8fc;strokeColor=#6c8ebf;" vertex="1" parent="1">
          <mxGeometry x="230" y="260" width="120" height="60" as="geometry" />
        </mxCell>
        <mxCell id="ZIUkU6c_xDonBehO3kMC-7" value="" style="edgeStyle=orthogonalEdgeStyle;rounded=0;orthogonalLoop=1;jettySize=auto;html=1;fillColor=#dae8fc;strokeColor=#6c8ebf;" edge="1" parent="1" source="ZIUkU6c_xDonBehO3kMC-4" target="ZIUkU6c_xDonBehO3kMC-6">
          <mxGeometry relative="1" as="geometry" />
        </mxCell>
        <mxCell id="ZIUkU6c_xDonBehO3kMC-4" value="80" style="whiteSpace=wrap;html=1;rounded=1;fillColor=#dae8fc;strokeColor=#6c8ebf;" vertex="1" parent="1">
          <mxGeometry x="230" y="460" width="120" height="60" as="geometry" />
        </mxCell>
        <mxCell id="ZIUkU6c_xDonBehO3kMC-9" value="" style="edgeStyle=orthogonalEdgeStyle;rounded=0;orthogonalLoop=1;jettySize=auto;html=1;fillColor=#dae8fc;strokeColor=#6c8ebf;" edge="1" parent="1" source="ZIUkU6c_xDonBehO3kMC-6" target="ZIUkU6c_xDonBehO3kMC-8">
          <mxGeometry relative="1" as="geometry" />
        </mxCell>
        <mxCell id="ZIUkU6c_xDonBehO3kMC-6" value="进行信息收集, 发现其存在 SQl 注入漏洞, 进行拖库" style="whiteSpace=wrap;html=1;rounded=1;fillColor=#dae8fc;strokeColor=#6c8ebf;" vertex="1" parent="1">
          <mxGeometry x="430" y="460" width="130" height="60" as="geometry" />
        </mxCell>
        <mxCell id="ZIUkU6c_xDonBehO3kMC-11" value="" style="edgeStyle=orthogonalEdgeStyle;rounded=0;orthogonalLoop=1;jettySize=auto;html=1;fillColor=#dae8fc;strokeColor=#6c8ebf;" edge="1" parent="1" source="ZIUkU6c_xDonBehO3kMC-8" target="ZIUkU6c_xDonBehO3kMC-10">
          <mxGeometry relative="1" as="geometry" />
        </mxCell>
        <mxCell id="ZIUkU6c_xDonBehO3kMC-8" value="密码的Hash 破解得到一个系统用户密码" style="whiteSpace=wrap;html=1;rounded=1;fillColor=#dae8fc;strokeColor=#6c8ebf;" vertex="1" parent="1">
          <mxGeometry x="610" y="460" width="120" height="60" as="geometry" />
        </mxCell>
        <mxCell id="ZIUkU6c_xDonBehO3kMC-13" value="" style="edgeStyle=orthogonalEdgeStyle;rounded=0;orthogonalLoop=1;jettySize=auto;html=1;fillColor=#dae8fc;strokeColor=#6c8ebf;" edge="1" parent="1" source="ZIUkU6c_xDonBehO3kMC-10" target="ZIUkU6c_xDonBehO3kMC-12">
          <mxGeometry relative="1" as="geometry" />
        </mxCell>
        <mxCell id="ZIUkU6c_xDonBehO3kMC-10" value="使用得到的系统用户进行登陆" style="whiteSpace=wrap;html=1;rounded=1;fillColor=#dae8fc;strokeColor=#6c8ebf;" vertex="1" parent="1">
          <mxGeometry x="610" y="260" width="120" height="60" as="geometry" />
        </mxCell>
        <mxCell id="ZIUkU6c_xDonBehO3kMC-12" value="发现用户具有 SUDO 服务特权通过修改服务文件来完成提权操作" style="whiteSpace=wrap;html=1;rounded=1;fillColor=#dae8fc;strokeColor=#6c8ebf;align=left;verticalAlign=top;" vertex="1" parent="1">
          <mxGeometry x="800" y="260" width="120" height="60" as="geometry" />
        </mxCell>
      </root>
    </mxGraphModel>
  </diagram>
</mxfile>
